<?xml version="1.0" encoding="utf-8"?>
<?xml-stylesheet type="text/css" href="../master.css"?>
<svg version="1.1" id="discoball" xmlns="http://www.w3.org/2000/svg"
	 viewBox="0 0 300 300">
<style type="text/css">
	*{fill:#ffffff;stroke:#ffffff;}

	.st0{fill:none;stroke:#ffffff;stroke-width:10;stroke-miterlimit:10;}
	.st1{fill:none;stroke:#ffffff;stroke-width:8;stroke-miterlimit:10;}
	.st2{fill:none;stroke:#ffffff;stroke-width:6;stroke-miterlimit:10;}
</style>
<g id="light">
	<path d="M44,160c0-2.8-2.4-5.2-5.2-5.2H16.5c-2.8,0-5.2,2.4-5.2,5.2s2.4,5.2,5.2,5.2h22.3C42,165.2,44,162.8,44,160z"/>
	<path d="M283.5,154.4h-22.3c-2.8,0-5.2,2.4-5.2,5.2s2.4,5.2,5.2,5.2h22.3c2.8,0,5.2-2.4,5.2-5.2
		C288.7,156.8,286.3,154.4,283.5,154.4z"/>
	<path d="M67.9,85.1c1.2,1.2,2.4,1.6,3.6,1.6s2.8-0.4,3.6-1.6c2-2,2-5.2,0-7.6l-16-16c-2-2-5.2-2-7.6,0c-2.4,2-2,5.2,0,7.6
		L67.9,85.1z"/>
	<path d="M232.1,234.5c-2-2-5.2-2-7.6,0c-2,2-2,5.2,0,7.6l15.9,15.9c1.2,1.2,2.4,1.6,3.6,1.6c1.2,0,2.8-0.4,3.6-1.6c2-2,2-5.2,0-7.6
		L232.1,234.5z"/>
	<path d="M75.1,234.5c-2-2-5.2-2-7.6,0l-15.9,15.9c-2,2-2,5.2,0,7.6c1.2,1.2,2.4,1.6,3.6,1.6s2.8-0.4,3.6-1.6l15.9-15.9
		C77.1,240.1,77.1,236.5,75.1,234.5z"/>
	<path d="M228.5,86.7c1.2,0,2.8-0.4,3.6-1.6L248,69.2c2-2,2-5.2,0-7.6c-2-2-5.2-2-7.6,0l-15.9,15.9c-2,2-2,5.2,0,7.6
		C225.7,85.9,227.3,86.7,228.5,86.7z"/>
	<path d="M26,110.2l20.3,9.2c0.8,0.4,1.6,0.4,2,0.4c2,0,4-1.2,4.8-3.2c1.2-2.8,0-5.6-2.8-6.8L30,100.6c-2.8-1.2-5.6,0-6.8,2.8
		C22,105.8,23.2,109,26,110.2z"/>
	<path d="M274,209.4l-20.3-9.2c-2.8-1.2-5.6,0-6.8,2.8s0,5.6,2.8,6.8L270,219c0.8,0.4,1.6,0.4,2,0.4c2,0,4-1.2,4.8-3.2
		C278,213.8,276.8,210.6,274,209.4z"/>
	<path d="M51.5,199.1c-1.2-2.8-4-4-6.8-2.8L24,204.6c-2.8,1.2-4,4-2.8,6.8c0.8,2,2.8,3.2,4.8,3.2c0.8,0,1.2,0,2-0.4l20.7-8.4
		C51.5,204.6,52.7,201.9,51.5,199.1z"/>
	<path d="M248.5,120.5c0.8,2,2.8,3.2,4.8,3.2c0.8,0,1.2,0,2-0.4L276,115c2.8-1.2,4-4,2.8-6.8s-4-4-6.8-2.8l-20.7,8.4
		C248.5,115,247.3,117.7,248.5,120.5z"/>
</g>
<g id="ball">
	<circle class="st0" cx="150" cy="159.6" r="77.8"/>
	<line class="st1" x1="84.3" y1="123.7" x2="215.7" y2="123.7"/>
	<line class="st1" x1="84.3" y1="195.8" x2="215.7" y2="195.8"/>
	<line class="st1" x1="70.3" y1="159.6" x2="227.8" y2="159.6"/>
	<line class="st2" x1="150" y1="237.4" x2="150" y2="81.8"/>
	<ellipse class="st2" cx="150" cy="159.2" rx="43.3" ry="73.5"/>
	<rect x="127.7" y="68.8" width="45.2" height="13"/>
	<line class="st1" x1="150" y1="38.4" x2="150.3" y2="78.3"/>
</g>
</svg>
