<?xml-stylesheet type="text/css" href="master.css"?>
<svg id="jamesmurphy" data-name="Layer 1" xmlns="http://www.w3.org/2000/svg" viewBox="0 0 367.46 364.46">
  <defs>
    <style>
      .cls-1 {
        fill: #050505;
      }

      .cls-2 {
        fill: #272727;
      }

      .cls-3 {
        fill: #9b9b9b;
      }
    </style>
  </defs>
  <title>jamesmurphy</title>
  <g>
    <path class="cls-1" d="M-29.76,169c0-31.21.55-62.61.49-93.9,0-17-10.53-94.53,1.67-104.61,8.76-7.24,49.8,0,61.66,0H301.24c24.53,0,27.71-6.93,29.21,15.6,2.88,43.14-.2,87.33.1,130.59.11,15.73,8.27,211.06-1,213.21-2.31.53-.86-3.83-2.42-4.13-1.77-.34-16.92,4.06-20.82,4.21,8-27.11,6.52-61,8.61-89.28,2.31-31.15-13.82-72.67-30-97.26-11.46-17.45-14.1-29.11-25.4-43.23-5.25-6.56-8-14.56-13.33-20.61-13.14-14.86-8.93.16-12.29-.14-5.51-.49-15.68-8.77-19.27-9.54-1.78-.38-21.43-11.31-22.76-5a10.22,10.22,0,0,1,2.84-5c-.48-1.3-9.94-4.34-10.75-1.88-1.2,3.67,5,5.06,6.34,5.67,3.46,1.57-12.13,7.69-13.89,7.74-6.46.18-3.17-2.66-7.57-3.57s-6-5-11.28-5.74c-4-.54-8.81,10.57-14.27,4.29.44-.22,2.53.25,2.54-.67,0-.28-12.73-2.93-14.72-1.4-.37-.82,1.94-3.87,1.17-4.4-1.82-1.26-3.94,8.57-4.25,8.53-.86-.13-1-9-1.74-10.38-2.59,7.91.58,12.21-4.21,16.77.12-.12-12.23.44-12.14-.78a2.6,2.6,0,0,1,1.74,1.3c.91-5.37-24.61-4.3-25.55-4.1-3.79.81-5.91,3.52-9.35,4.76-10.33,3.72-2.95-4.1-8.52-4.16-2.17,0-7,12.84-10.81,11.06,9.11,4.26-12.72-20-8.4-5.51,3.29,11,4.52-2.33-.56,14.88a109.89,109.89,0,0,0-4.91,30.88c-.11,3.93,1.33,79.78-.72,80.15,6.92-1.26-9.33-153-2.82-155.4-10.84,3.92,7.4,97.26-2.22,96.64-3-.19,2-30-1.77-33.64-6-5.77-13.31,2.61-14.54,1.57-5.45-4.57,3.7-21.15-.92-22.68-7.49-2.48-16,30.27-17.81,27.81,6.59,9,5.42.54-4,15.34a134.57,134.57,0,0,0-9.09,16.67C-13.2,156-20.89,178.1-29.76,169ZM290.71,147C290,146.78,291.83,148.36,290.71,147ZM39.18,38.37c-.07,1.51-1.35,7.13,1.34,7.24,3.91.15,1.78-24.15.29-24.18C38.54,21.39,39.2,38.48,39.18,38.37Zm189.05,3.45c.59,6.54-3.37-1.21-3.44-1.21-4.48-.12-.22,10.63,6.92,10.08S227.95,35.27,228.24,41.82ZM35.92,13.26c1.93,13.31,12.1-23.19.84-12C36.85,1.14,34.93,23.23,35.92,13.26Zm273.6,85.13q-.73,5.55,3.82,4.43c1.44-2.21.64-17.37-2.21-17.28C308.77,85.62,307.14,107,309.52,98.39ZM18,62q1-4.29-2.39-6.59c-6.05-1.48-3.47,12,.42,11.45A3.92,3.92,0,0,0,18,62ZM.47,115.38S-4.25,102-5.11,102.22C-12.24,103.93.41,122.9.47,115.38ZM126.24,44c-.46,0,2.48,10.44,6.22,5.72C134.6,47,126.24,37.19,126.24,44Zm25.48,8.82c-.53-7.58-8.55,5.68-2.4,5.71Q152.3,56.67,151.72,52.78Zm-161.27,41c-1.54,0-5.33,5,0,4.41a2.72,2.72,0,0,0,3.3-1.52ZM228.57,21q3.14-.31,2.47-4.28C230.57,12.55,222.11,21.31,228.57,21ZM6.51,91.43q-1.85-4.29-4.12-.16Q4.79,95.92,6.51,91.43Zm30.22-17c0-.11-.64-6-2.4-2.93C32.36,74.93,36.74,78.58,36.73,74.44Zm.12-50.86C42.77,23.39,32.23,23.46,36.85,23.58Zm6.29-1.39C43.57,27,43,18,43.14,22.19ZM37.59,49.72C36.52,45.38,37.19,53.93,37.59,49.72Zm7.8.3C45.2,46.88,45.27,52.89,45.39,50Zm227.72,62.05a3.56,3.56,0,0,0-.14-2.19A5.1,5.1,0,0,0,273.11,112.08Zm27.1,60C299.95,171.67,300,172.22,300.21,172Z" transform="translate(33.5 32.89)"/>
    <path class="cls-2" d="M135.25,64.31c2,1.18,5.27-1.17,6.31-.64s-1.35,3.47-1,3.82c2.42,2.51,7.6-.57,10,4.89,1.4,3.19.2,31,1.77,30.77-1.16.18-3.05-9.49-6-9-3.2.51,1.81,5.35,0,6.42-8.31,5,11.62,23.23,10.14,32.66-.45,2.85-5.44-6.77-2.29-2.92.13-.6,2.55,5.12.61,4.83-.05.05,3.23,2,3.84.93a4.57,4.57,0,0,0-1.3-2.31,32.12,32.12,0,0,0,3.76,1.2c2.44-1.61,2.49-11.58,7.13-8.56,1.78,1.16-5.46,12.46,2.26,11.72-.25-1.65-1.35-21.19,2.7-18.55,1.94,1.26,4.43,22.75,3.65,25.46-1.71-.19-4.94-4.55-6-5.67-2.73,3.33,4.53,17.69,6.81,18.2.5.11,2-3.36,2.41-2.11a11.4,11.4,0,0,0-2.72,6.32c-.13-.58-8.83-17.22-11.29-16.61a5.87,5.87,0,0,0-.64,3.08s-3.52-9.16-4.43-9.08c.43,0-2.6,10-2.06,10.52.89.81,2.88-2.64,3.63-1.51,1.76,2.63-10.06,11.74-9.85,17.16.14,3.75,11.21-2.17,12.24-1.18,3.11,3-16.12,9.32-12.49,8.35-2.93.78,1.16-10.79.12-13.76,4-3-8.78,16.31-8.27,14.57-.35,1.19,1.5,10.25.31,14.21,1-3.47-30.8-19.37-29.72-6.09.36,4.46,12-2.68,13.11-1.91,1.81,1.3,24.3,27.73,22.24,30s-21.48-29.53-25.41-26c-1.35,1.2,21.34,21.1,16.8,29.33-1.43,2.59-50.75,26.11-41.51,32.08-8.4-5.44,37.6-26.7,37.1-16.89,0,.92-28,4.36-25,10.7.19.4,37.34-12,37.25-6.94,0,.46-44.8,9.64-40.79,16.06,2.79,4.46,24.48-18.31,30-8-1.52-2.87-42,14.62-35.69,20.4,1.69,1.56,8.55-4.78,9.09-4.21,1.68,1.78-11.65,8.57-8.76,11.93,2.68,3.12,32.68-21.77,35.43-18.3.35.44-39,23.47-34.93,26.19,3,2,41-24.55,42-22.91-.88-1.42-50.79,36.28-45.94,39.86.21.15,31.94-28.75,34.78-23.54,1.47,2.69-55,34.92-38,49.53-.3-.26-4.18,10.37-4.16,11.49-4.55,0-.51-10.61-3.32-7.39-.17-7,3.06-19.06.77-25.78-4.07,5.85-2.91,17.5-6.94,22.15-9.91-15.93,11.22-48.43,10.7-65.65,6.78,11.16-7.25,30.53-2.3,42.27,3.62-14.85,4.45-31.8,5-47.07a26.13,26.13,0,0,0-1.54,3.9c-4.66-9.21,24.22-27.62,21.67-31.48-4.68-7.07-19.52,18-20.62,18.57-1-6-1.58-11.78,2.52-22.44,1.09,4.57-2.8,10.38-1.54,14.3,5.66-7.54,2.6-34.15,13.8-38.32A3.23,3.23,0,0,0,112,197c.54,0,9.63-15.48,1.29-14.36,3.78-.5-11.42,10.2-13.37,10.92-4.89,1.81-31.39,1.7-34.78-2.83-7.38-9.89,18.49-8.2,3.76-13.25-5.93-2-13.74.34-17.88,3.49,15.69-11.95-9.06,24.64-6.13,12.92-1.74,7,23.86-.13,25.29,3.55,1,2.5-20.12,12.51-21,13.6-6.66,7.91-5,20.24-5.22,33.62-.49,27.59-.19,55.23,2.5,82.92-8.82-2,2.29-44.24-3.55-45.3-.34-.06-1.62,19.83-1.55,24.09.08,5.15,2.14,11.7,1.05,16.66-.74,3.38-5.27,1.8-6.23,4.08-4-11.2,2.21-38.29,1.67-51.89-.52-13.16-1.07-26.25-1.25-39.42-.17-12.51-1.34-16.12-6.18-23.81C21.84,198.4,5.73,194.4-11.83,200.86-39.53,211-3.29,212.13-5,214.7c-1.52,2.25-23.18,37-24.4,37.24.72-25.77,2.88-55,0-80.6,10.28,4.55,17.26-18.27,20.57-24.67,2.52-4.87,4.82-9.34,7.64-13.76,9.44-14.79,10.61-6.3,4-15.34C4.6,120.06,13.12,87.25,20.6,89.77c5.39,1.82-5.37,17.4.92,22.68,1.51,1.27,8-7.83,14.54-1.57,3.77,3.6-1.22,33.45,1.77,33.64,4,.26-2.15-64,.77-68,.51,1.45,0,23.93,1.61,23.93,2.46,0-.21-42.4,1.64-48.65,5.74,4.73-2,152,1,151.44,2.37-.43.32-74.45.47-79.68.31-10.86,1.46-20.64,4.32-30.32,1-3.38,5.72-7.46,7.53-11.27,2-4.15-5.57-2.75-6.14-4.64-4.29-14.38,17.08,9.57,8.4,5.51,3.81,1.78,8.64-11.09,10.81-11.06,5.57.07-1.81,7.88,8.52,4.16,4-1.42,5.09-3.85,9.35-4.76,1.17-.25,26.45-1.19,25.55,4.1A2.6,2.6,0,0,0,110,74c.27-3.9,14.85,3.8,10.43,6C112.16,84.05,108,119.37,106,119.88c-1.05.28-2.41-3.09-3.92-3,3.39,9,2.93-1.23,3.65,7.34-.88.74-1.13-2.17-2.08-1.94-1.62.39,3,7.37.34,8.75-2.4,1.26-2.77-4.43-4.91-3.68-1.6.56,4.34,28.28,8,29,15.72,3,.85,21.67,23.4,9.94-.06,0,30.43-16.22,27.36-17.45,1.3-2-6.53-20.79-7.82-22.73a10.43,10.43,0,0,0,.75,3.67c-1.59.2-5.8-16.49-6.41-18.41-.26.71.46,5.77-.53,6.1-1.31.43-1.71-6.54-4.35-3.81s3.07,8.21-1.75,4.42c-.38.32-.7,4.52-1.92,3.52-2.12-1.75-14-16.14-13.06-17.49.54-.82,5.06,2,5.08.73,0-.42-1.3-4.06.8-4.67s10.19,3.59,12.39,2.95c4.39-1.3-1.82-8.71-1.47-9.53,1.12-2.64,8-1.82,8.22-2.15,14.45-24.9-17.47-8.18-11.62-4.66a4,4,0,0,0-.22-2.34c-1.56-.5-.55,4.43-2.16,4.21-2.61-.37-2-3.81-6.09-3.21-.1.77.32,10.91.59,11.15,2.81,2.49.26-3,2.27-1.92,9.37,5.07-11.17,2-7.83,1.59-4.49.58-8-18.91-6.78,2.14-7.48-7.6,1.4,1.89-4.35-2.57-1.74,11.38,7.38,13.58,7.45,14.79-.23-3.84-4.59,8.86-1.81,6.5-.52.44-1.11-.94-1.55-.47-.13.14,3.86,5.76,4.68,5.26,1.89-1.15-2.54-4.66-1.48-5.67,1.57-1.5,5.32,7.34,4.94,7.61,3.2-2.22-2-4.45-.87-7.57,6.09,1.92,2.48,8.75-.45,12.16-1.23-1.57-3-3.66-4.24-5.29a10,10,0,0,0,1,2.34c-1.7,1.4-4.1-7.38-4.15-1-21.33-7.78,7.24-52.85,16.4-56.53.8-.32,3.48,4.2,4,4.15a10.46,10.46,0,0,0,2.31-2C138.11,68,131,68.94,135.25,64.31Zm-33,57.6C100,120.65,96.8,119.6,102.27,121.91ZM50.4,140.58c1.67,0,12.09-6.94,6.9-9.17.6.26-13.39,3.58-12.81,1.95Q44.13,140.6,50.4,140.58ZM25.63,192.21c-12.05,1.8,10.64,12.54,9.9,2Q32.43,189.6,25.63,192.21ZM28.95,179s-10.76,2.09-3.88,5.14c2.17,1,11.3-.35,10.65-3.75A6.57,6.57,0,0,0,28.95,179Zm104.48,21.89c-.84-1.39-8.62-12.14-11.48-11.07C118.88,191,133.37,203.89,133.43,200.93ZM.82,174.44c0-5.72-7.68.41-5.38,3.38C-3,179.82,1.28,176.48.82,174.44ZM2.56,164.1q.67-3.83-2.2-5.46C-4.84,159.17,2.94,174.22,2.56,164.1Zm132-60c-1.11,2.06-1.35,6.53,2.27,8.63a14.09,14.09,0,0,1-1.2-5.17c-.62.25,3.64,2.84,3,.56C138.17,106.83,135.67,104.9,134.53,104.09ZM141.59,183q.32-5.2-3.58-6.68C135.46,177.27,141.3,186.65,141.59,183Zm32.1-52.35c-.23-1.44-1.48,13.18,1.94,9-3.77-1.38-2.22-5-.69-4.94ZM123.1,87.51C120.5,92.26,122.75,87.51,123.1,87.51Zm10.57-17.17C131.54,71.58,132,75.27,133.67,70.35ZM159.12,140C159.92,137.7,156.33,136.69,159.12,140Zm-27.69-30.34C132.84,116.67,131.95,104.63,131.43,109.62Z" transform="translate(33.5 32.89)"/>
    <path class="cls-3" d="M94.73,252.67c3.52-2.77,1,6.29,0,16.38-.85,8.84-1.31,18.09-3.43,26.78-4.95-11.74,9.08-31.11,2.3-42.27.29,9.46-24.12,70.75-4.81,72.26,0,0,.23-4.43,1-4.28-.84-.16,2.23,8.14,2.33,8.7H18.31c-9.69,0-24.19,3-33.57,0-26.11-8.3-6.25,11.56-14.52-14.44-5.71-17.94,0-47.77,0-66.75q0-40,0-80.1c8.71,9,.72,69.33.34,83,1.22-.24,22.88-35,24.4-37.24,2.23-3.31-35.61-3.38-6.8-13.85C2.82,195.53,27,199,33.53,212.7c8.4,17.66,4.25,50.6,4.54,71.49.22,15.67.33,30.86-2.26,45.71,22.17,0,8.23-49.29,8-67.83-.14-13-3.92-41.31,2.7-50.6.82-1.15,25-10.54,23.67-14-1-2.47-26.63,1.79-25.29-3.55C42,205.65,66.73,169.06,51,181c3.92-3,9.87-4,15.55-3.53,18.37,1.64-7.48,5.17-1.42,13.28,2.77,3.72,25.07,4.45,29.9,3.82,7-.91,18.88-12,18.25-11.91,10.73-1.43-2.65,11.83-1.85,9.68-2,5.35-6.67,10.72-8.76,16.4-2.54,6.89-1.46,16.88-5.95,22.86-1.26-3.92,2.62-9.73,1.54-14.3C93.56,229.62,93.47,244.81,94.73,252.67ZM-29.42,325.2c.57,0-1.36,4.7,1.46,4.7,3,0,.42-9.51-1.19-9.1A7.32,7.32,0,0,0-29.42,325.2Z" transform="translate(33.5 32.89)"/>
    <path class="cls-2" d="M155.28,64.32c1.29-11.42,16.83,7.94,16.39,7.85,3.66.76,20.87-7.53,18.63-8.54-1.34-.61-7.54-2-6.34-5.67.8-2.46,10.27.58,10.75,1.88a10.22,10.22,0,0,0-2.84,5c1.32-6.28,20.8,4.59,22.76,5,3.46.74,13.68,9,19.27,9.54.46,0-2.64-9.67,5-7.89-4.77-1.11,8.62,10,7.61,8.81,6.68,7.56,11.63,17,17.57,26.16,7.75,12,21.27,34.23,30,51.13,6.83,13.27,11.5,29.27,15.28,43.58,6.83,25.84,3.21,42.57,1.41,68-1.1,15.6,2.45,34.15-2.14,49-4.26,13.84-12.13,14.38-27.52,11.6.29-1.39,2-8,.22-9.72,1.79,1.77-11-13.78-8.28-8.1-3.73-7.69-5.33,5.38-3.87-14.21,1.14-15.38,5.22-8.61,11.59-17.72,9.48-13.58,15.16-17.59,9.87-36.22-1.54-5.42-21.15-32.64-20.74-34.43-.51,2.22,33.27-6.09,26.18-11.06-4.15-2.91-41.82,3.36-41.3-6.24.35-6.47,12.15,1.26,14.57.25,9-3.74-24-6.67-24-6.67-23.88.51-28-4.87-2.46-7.49,17.53-1.8,21.53-4.17-.54-6.23-6.36-.6-16.27,2.63-21.83,1.26-2.6-.64-2.13-3.54-3.42-4.16-13.55-6.51-15.12-16.83-21.07-30.4-3.16-7.2-3.22-11.89-9.25-18.23-8.65-9.09-1.59-4.74-10.31-8-3.32-1.24-7.44,9.65-9,6.65s6-6.39,3.23-9.75c-2.19-2.68-18.12-14.61-18.06-18.67.1-7.26,9.54-8.43,9.93-10.08a5.68,5.68,0,0,0-1.87-2.83c.1-1.56,3.11-.19,3.18-1.62.06-1.25-10.76-8.46-7.2-9.63C151.86,68.06,158.2,66.95,155.28,64.32Zm42.38,64.4c0,14.26,21.82,10.75,18.19,1C217.5,134.15,197.72,126.1,197.66,128.71Zm52.5-5.52c-.58,11.71,16.67,7.49,11.67,3.4C260,125.07,251,118.67,250.16,123.19ZM230.73,167c9.31-1,1.67-6.63,1.45-8.62C232.38,160.11,215,164.8,230.73,167Zm14.22-6c-1.47,0-8.88,1.25-7.36,4.77.06.14,13.75-1.59,13.63-3.68A6.5,6.5,0,0,0,244.95,161ZM175.81,91.73q5.19-2.12.56-4.84Q170,89,175.81,91.73ZM258,162.37c-.52-3.71-3.46-2.17-2.76,1.37C256,167.77,257.94,162.63,258,162.37Zm-36.24-8c-.37-3-3.52-.9-2.36,2.37Q221.86,158.16,221.74,154.4Zm2.68-76.92C224.82,82.07,225,73,224.42,77.48Z" transform="translate(33.5 32.89)"/>
    <path class="cls-1" d="M217.2,171.84c10.19,13.12,21,83.9-8.2,82.62,6.25-5.86-11.44-20.59-21.83-4.24-11.23,17.67,4.57,25.8,10.34,37.83,2.77,5.78,10.53,35.15,6.23,40.43s-41.44,1.27-47.31,1.25c-21.49-.07-42.65.23-64,.22,0,.29,3.58-11.7,4.17-11.19-17-14.62,39.49-46.84,38-49.53C131.76,264,100,292.91,99.81,292.76c-6-4.4,45.88-40,45.94-39.86-1.27-2-38.42,25.3-42,22.91-4.08-2.72,35.28-25.74,34.93-26.19-2.74-3.47-32.74,21.42-35.43,18.3-2.89-3.36,10.44-10.15,8.76-11.93-.54-.58-7.4,5.77-9.09,4.21-6.28-5.78,34.17-23.27,35.69-20.4-4.43-8.37-28,11.14-30,8-4-6.42,40.78-15.6,40.79-16.06.09-5-37.06,7.34-37.25,6.94-3-6.34,24.94-9.78,25-10.7.49-9.66-46,11.11-37.1,16.89-9.2-6,40.55-30.34,41.51-32.08,4.79-8.66-18.56-27.76-16.8-29.33,3.23-2.88,24.1,27.47,25.41,26,2-2.18-18.54-27.7-22.24-30-.85-.52-12.76,6.11-13.11,1.91-1.11-13.58,30.66,2.93,29.72,6.09,1.3-4.34-.73-12.75-.31-14.21-.15.54,9.25-15.31,8.27-14.57,1.1,3.11-3.55,14.17-.12,13.76-3.61.44,15.7-5.3,12.49-8.35-.84-.8-12.11,4.66-12.24,1.18-.17-4.54,11.09-15.31,9.85-17.16-.81-1.22-2.68,2.38-3.63,1.51-.19-.17,2.1-10.52,2.06-10.52.92-.09,4.44,9.1,4.43,9.08a5.87,5.87,0,0,1,.64-3.08c5.85-1.43,12,22.4,13.84,26.5,10.1-20.49-.82-2.7,4.52-9.76,0,10.27,1.18,17.47,2.44,26.69,0-.22,6.09,20.58-2.18,19.09-4.66-.84,5.67-11.14,2.41-12-4.3-1.13-10.09,15.83-9.88,18,.45,4.74,24.48-14.55,25.65-14-.63-.32-2.39,24.94,5.32,9.43q-1,4.36,2.34,5.08c7.52-4.3-7.39-13.17-6-15.37.61-1,6,.2,5.76,1-.32,1-3.37-.71-4.08.37,1,.44,12.15,4.08,12.27,4-.75.47,1.76-9.46,1.47-9.09s-14.54-13.52-18.44-1.36a7.41,7.41,0,0,1,7.57-1.14c-25.23,9.29.53,1.11-6.24-6.16-2.93-3.14-6.3,11.5-7.48,11.6-1.33.11-3.45-33.87-7.05-28.9a11.77,11.77,0,0,1,4.57-11c.62,1.09,15.09,21.18,14.23,16.9.19.94-8.94,5.94-8.35,6,4.6.46,16,6.91,19.48,4.47s-19.33-25.1-18.2-28.53C204.67,157.06,214.68,168.89,217.2,171.84ZM133.41,285.45c0-4.56-27.13,13.58-25.9,15,1,1.14,5.68-4.55,6.79-3,1,1.4-3.89,4.85-2.36,5.9C113.72,304.6,133.22,287.64,133.41,285.45ZM155.75,273c0-3.64-20.1,18.78-19.69,19.2C139.1,295.36,155.74,273.3,155.75,273Zm11.93-82.55c-.34,1.7,13.82-11.05,9.85-13.9C176.45,175.79,168.09,188.47,167.68,190.47Zm18.7,1.08c-2.1.34-15.75,9.93-14.39,12.07C172.93,205.1,185.06,193.39,186.39,191.55Zm-17.13-17.79c-2.75-1.88-15.39,8-13.66,10.81S168.61,172.84,169.25,173.75ZM183,188.29c-.23.06-16,3.09-8.33,7.57C175.41,196.31,194.21,181.93,183,188.29Zm-48.47,88c-.36-1.5-9.19,4.11-8.29,5.32C127.22,283,134,277,134.48,276.27Z" transform="translate(33.5 32.89)"/>
    <path class="cls-3" d="M114.24,330.24c0-.58,80.32,0,81.68-.66,17.28-7.8,1.37-36.15-2.21-53.26-7.19-34.36,2.18-14.26,22.49-22.44,14.42-5.82,11.3-22.47,9.64-35-1.49-11.27-.06-37.09-7-44.89,2.33-4,37.26-4,39.19.89,3.71,9.38-20.76,2-25.35,3.5-22.54,7.23,9.88,7,18.13,7.21.05,0,27.48,3,18.47,6.77-2.42,1-14.22-6.72-14.57-.25-.52,9.6,37.15,3.34,41.3,6.24,9.06,6.34-26.25,11.37-26.18,11.06-.42,1.83,19.21,29,20.74,34.43,5,17.81-.69,23.07-9.87,36.22-6.38,9.14-10.38,2.35-11.59,17.72-.63,8,1.88,10.11,3.87,14.21a5.21,5.21,0,0,1,6.45-.4l1.83,8.5c1.55,2.44.2,7.67-.22,9.72a8.12,8.12,0,0,1,5.48.42Zm107.7-.35c25.28,0,1.84-19.94-5.73-17.46C206.46,315.61,209.4,329.88,221.94,329.89Zm.86-27.5c8.55-1.22,21.18-5.45,7.17-14.92C230.15,287.6,212.83,302.85,222.8,302.39Zm34.41,4.21q-2,7.08,2.48,11.41c3.85.27,6.82-25.45,3.06-26.6C256.18,289.42,257.22,307.19,257.21,306.6Zm-13.13,1.65c0,14.57,14.14-12.88,4-13.06Q241.59,299.5,244.08,308.25Zm-14.29-.81c-12.74,0,4.65,12.34,3.94,1.94A3.2,3.2,0,0,0,229.79,307.44ZM276,318.92c.07-9.43-8.33,4-6.09,3C271.65,321.26,275.4,325.81,276,318.92Z" transform="translate(33.5 32.89)"/>
    <path class="cls-3" d="M299.76,330.24c5.63-5.32,24.14.9,29.74-.4,8.83-2,1.23-192,1.11-206.77-.32-41.08-.15-82.15-.17-123.23,0-24.62,7-27.79-15.51-29.39s-45.88,0-68.51,0c-85.66,0-175.06-7.51-260.33,0-22.74,2-15.58,4.37-15.62,28.21,0,21.28.1,42.56.21,63.84,0,7.39,4.14,100-.45,101.42q0-61.9,0-123.8c0-16.62-6.68-47.26,0-61.9,7.4-16.26-8.3-.57,8-8,8.22-3.76,24.9,0,34.51,0q124.23,0,248.45,0c17.27,0,38.31-3.34,55.21,0,27.6,5.44,8.15-6.69,14.86,7.91,2.79,6.07,0,20.74,0,27.54q0,62,0,123.94t0,123.94c0,19.4,4.06,43,0,62-.81,3.79,2.22,11.92-1,14.75C327.89,332.34,303.11,330.24,299.76,330.24Z" transform="translate(33.5 32.89)"/>
    <path class="cls-3" d="M92.4,329.94a32.84,32.84,0,0,1,14.88.3C107.83,330.24,92.4,330.5,92.4,329.94Z" transform="translate(33.5 32.89)"/>
    <path class="cls-3" d="M289,330.24c.14-.52,7.84-.43,8.16,0Z" transform="translate(33.5 32.89)"/>
    <path class="cls-3" d="M203.53,159c-22-15.25-10.45,28.11-9.87,35.15-13.59.4-9.28-25.47-9.28-32.24-3,4-2.22-2.44-4.26-2.15a6.23,6.23,0,0,1-2.32,2.93c-1.11-.79.92-7,2.23-7.23,14.41,12.29,2.85-1.52,1.93-5.77-.43-2,3.81,1,4.17.82,2.28-1.25-3.78-9.85-4.79-9.47-.15.06-1.84,3.09-2.76,3.73-4.95-1.62-2.07-23.05-5.38-25.2-3.79-2.46-2.95,16.9-2.7,18.55-7.71.74-.47-10.56-2.26-11.72-4.91-3.2-4.64,6.93-7.13,8.56a32.12,32.12,0,0,1-3.76-1.2,4.57,4.57,0,0,1,1.3,2.31c-.66,1.21-3.46-.76-3.84-.93.52.08-10.95-33.06-8.46-34.57,1.77-1.07-3.24-5.91,0-6.42,3-.48,4.85,9.19,6,9,4.44-.68-3.28-31.24-6.56-33.18-1.09-.65,8-5.68,9.53-5.65-1.49-1.34,8.49,13.27,8.56,11.8-.07,1.43-3.08.06-3.18,1.62a5.68,5.68,0,0,1,1.87,2.83c-.44,1.86-10.43,2.37-9.93,10.08.33,5,13.25,12.6,15.88,17.05,3.26,5.53-3.09,7.48-1,11.37.32.61,10.91-8.81,14-7.92,2.81.81,10.57,14.24,12.09,17.95C195.09,133,204.16,156.51,203.53,159Zm-24.27-42.81c.59-2-4.55-2.88-5.18-.82-.3,1,7,15.8,7.18,16.51C184.56,128.4,178.79,119.73,179.25,116.17Zm-21-2.16c4.5-1.36,6.17-13.13,2.88-13.07C157.32,101,159,115.48,158.29,114Zm25.44,47.49C183.36,153.77,180.44,165.66,183.73,161.5Zm-24-86.66C157,75.62,165.16,76.58,159.74,74.83Zm32.64,110a5.89,5.89,0,0,0-.8-3.61A11.48,11.48,0,0,0,192.39,184.88Z" transform="translate(33.5 32.89)"/>
    <path class="cls-3" d="M105.77,124.19c-.72-8.57-.26,1.67-3.65-7.34,1.51-.07,2.86,3.3,3.92,3,1.92-.51,6.12-35.83,14.34-39.88,1.06-.52,5-16.17,7-15.63a4,4,0,0,0,.64,4c2.12.32.32-7.42,2.72-7.17,2.37,2.82,1.35,0,4.49,3.08-4.1,4.48,2.84,3.92,2.58,5.77a10.46,10.46,0,0,1-2.31,2c-.51.06-3.19-4.47-4-4.15-5.6,2.25-12.82,15.91-15.89,20.5-6.06,9-4.89,28,.71,43.42-3.29.38-1.24-6.46-3.77-5.76-1.39.38.5,14.69.93,16.23-9-6.79,3.39,24.72,5.74,25.12.73.12,4.59-2.89,4.53-1.89-1.33,20.22-14.35-8.79-16.62-9.22-3.69-.69-9.63-28.41-8-29,2.14-.75,2.5,4.94,4.91,3.68,2.15-1.13-.56-7-.7-7.59C102.62,120.55,105.91,125,105.77,124.19Z" transform="translate(33.5 32.89)"/>
    <path class="cls-3" d="M41.85,51.83c-1.85,6.25.82,48.66-1.64,48.65s-1-47.49-.9-51.33Q42.63,49.12,41.85,51.83Z" transform="translate(33.5 32.89)"/>
    <path class="cls-2" d="M228.24,41.82c-.3-6.75,10,8.43,3.48,8.87-7.16.48-11.72-10.2-6.92-10.08C224.76,40.61,228.83,48.35,228.24,41.82Z" transform="translate(33.5 32.89)"/>
    <path class="cls-2" d="M35.92,13.26c-1,10,.93-12.11.84-12C47.83-9.74,37.91,26.94,35.92,13.26ZM37.51,6C38.56,11,37.17-1.27,37.51,6Zm4.62.95C40.84,2,41.7,11.72,42.13,6.91Z" transform="translate(33.5 32.89)"/>
    <path class="cls-2" d="M309.52,98.39c-2.38,8.65-.75-12.77,1.61-12.84,2.85-.09,3.65,15.07,2.21,17.28Q308.79,103.94,309.52,98.39Z" transform="translate(33.5 32.89)"/>
    <path class="cls-2" d="M18,62a3.92,3.92,0,0,1-2,4.86c-3.9.52-6.48-12.93-.42-11.45Q19,57.7,18,62Z" transform="translate(33.5 32.89)"/>
    <path class="cls-2" d="M.48,115.38c-.07,8-11.16-11.82-5.59-13.16C-4.25,102,.47,115.42.48,115.38Z" transform="translate(33.5 32.89)"/>
    <path class="cls-2" d="M126.24,44c0-6.45,8.38,3,6.22,5.72C128.72,54.4,125.78,44,126.24,44Z" transform="translate(33.5 32.89)"/>
    <path class="cls-3" d="M39.12,39.84c.16-3.67-.51-14.62,1.54-14.62s2,18.89-.24,18.78A4.87,4.87,0,0,1,39.12,39.84Z" transform="translate(33.5 32.89)"/>
    <path class="cls-2" d="M39.12,39.84A4.87,4.87,0,0,0,40.41,44c2.2.11,2.16-18.77.24-18.78-2.24,0,0,11.81-1.47,13.14,0,.11-.64-17,1.64-16.94,1.42,0,3.71,24.33-.29,24.18Q37.29,43.8,39.12,39.84Z" transform="translate(33.5 32.89)"/>
    <path class="cls-2" d="M151.72,52.78q.58,3.89-2.4,5.71C143.66,58.46,151.17,44.91,151.72,52.78Z" transform="translate(33.5 32.89)"/>
    <path class="cls-2" d="M-9.56,93.83l3.29,2.89a2.72,2.72,0,0,1-3.3,1.52C-14.89,98.87-11.09,93.82-9.56,93.83Z" transform="translate(33.5 32.89)"/>
    <path class="cls-2" d="M228.57,21c-6.45.34,2-8.42,2.47-4.28Q231.7,20.67,228.57,21Z" transform="translate(33.5 32.89)"/>
    <path class="cls-2" d="M6.51,91.43q-1.72,4.48-4.12-.16Q4.66,87.14,6.51,91.43Z" transform="translate(33.5 32.89)"/>
    <path class="cls-2" d="M36.73,74.44c0,4.14-4.38.49-2.4-2.93C36.09,68.46,36.73,74.34,36.73,74.44Z" transform="translate(33.5 32.89)"/>
    <path class="cls-2" d="M39.22,53c.75,2.57,1,10.54,0,13.24C38.2,65.35,38,54.16,39.22,53Z" transform="translate(33.5 32.89)"/>
    <path class="cls-2" d="M127.41,64.37q-4.31,2.33-1.1-6.34C126.68,58.68,127.78,63.73,127.41,64.37Z" transform="translate(33.5 32.89)"/>
    <path class="cls-2" d="M328.1,329c-.48,0-4-1-3.2-1.86C327.39,324.21,328,326.85,328.1,329Z" transform="translate(33.5 32.89)"/>
    <path class="cls-3" d="M143.29,66.35c.93,0-5.17,2.42-2.36,0C142,65.4,145.22,65.4,143.29,66.35Z" transform="translate(33.5 32.89)"/>
    <path class="cls-2" d="M36.85,23.58C32.23,23.46,42.77,23.39,36.85,23.58Z" transform="translate(33.5 32.89)"/>
    <path class="cls-2" d="M43.14,22.19C43,18,43.57,27,43.14,22.19Z" transform="translate(33.5 32.89)"/>
    <path class="cls-2" d="M131.4,63.08C129.54,62.69,134,55.48,131.4,63.08Z" transform="translate(33.5 32.89)"/>
    <path class="cls-2" d="M41.86,50.18C40.08,44,40.84,51.18,41.86,50.18Z" transform="translate(33.5 32.89)"/>
    <path class="cls-2" d="M37.59,49.72C37.19,53.93,36.52,45.38,37.59,49.72Z" transform="translate(33.5 32.89)"/>
    <path class="cls-3" d="M43.6,123.12c-1,0-.15,6.42-.13,6.92Q43.42,126.57,43.6,123.12Z" transform="translate(33.5 32.89)"/>
    <path class="cls-2" d="M143.52,66.24C144,64.2,148,66.24,143.52,66.24Z" transform="translate(33.5 32.89)"/>
    <path class="cls-2" d="M45.39,50C45.27,52.87,45.21,46.9,45.39,50Z" transform="translate(33.5 32.89)"/>
    <path class="cls-2" d="M39.09,68.39A3.55,3.55,0,0,1,39,70.57,1.52,1.52,0,0,1,39.09,68.39Z" transform="translate(33.5 32.89)"/>
    <path class="cls-3" d="M273.11,112.08a5.1,5.1,0,0,1-.14-2.19A3.56,3.56,0,0,1,273.11,112.08Z" transform="translate(33.5 32.89)"/>
    <path class="cls-2" d="M38.86,74.87a.78.78,0,0,1-.14,1C38.31,75.46,38.3,75.13,38.86,74.87Z" transform="translate(33.5 32.89)"/>
    <path class="cls-2" d="M300.21,172C300,172.22,300,171.67,300.21,172Z" transform="translate(33.5 32.89)"/>
    <path class="cls-2" d="M290.71,147C291.3,147.75,290.31,147.45,290.71,147Z" transform="translate(33.5 32.89)"/>
    <path class="cls-2" d="M290.56,147.19c-.1-.2,0-.21.15-.15Z" transform="translate(33.5 32.89)"/>
    <path class="cls-1" d="M123,165c-.08.34-2.92,2.54-3.72,2.4.82.14-14.18-42.7-1.18-20.18.71-2.31-3-25-2.79-25.11,1-.46,3,4.13,4,3.34a10,10,0,0,1-1-2.34c1.55,1.87,2.65,3.25,4.24,5.29,4.51-5.24,1.59-17.18-3.61-12.2-1.06,1,3.37,4.52,1.48,5.67-.82.5-4.81-5.11-4.68-5.26.44-.47,1,.91,1.55.47-3.38,2.86,1.62-9.68,1.81-6.5,0-.58-9.11-4-7.45-14.79,5.29,4.1-2.82-4.73,4.35,2.57-1.26-20.85,2.27-1.57,6.78-2.14-3.48.44,17.35,3.56,7.83-1.59-2-1.09.54,4.41-2.27,1.92-.27-.24-.69-10.38-.59-11.15,4.12-.6,3.48,2.84,6.09,3.21,1.61.23.6-4.71,2.16-4.21a4,4,0,0,1,.22,2.34c-5.59-3.37,26.29-20.61,11.62,4.66-.19.33-7.1-.49-8.22,2.15-.44,1,5.94,8.21,1.47,9.53-2.2.65-10.26-3.56-12.39-2.95-2.49.72-.79,3.9-.8,4.67,0,1.3-4.54-1.55-5.08-.73s10.6,15.47,13.06,17.49c1.22,1,1.54-3.2,1.92-3.52,4.75,3.73-.68-1.91,1.75-4.42,2.64-2.73,3,4.24,4.35,3.81.9-.3.35-5.35.57-6.07,2.67.65,12,33.06,13.44,37.44-.51-.2-36.07,26.89-37.68,25.21.46-.68,5.7-12,5.31-11.7Q122.73,162.24,123,165Zm18.62-25.57c-8.05,2.77,9.17,11.29,12.6,12.77C151.74,151.14,149.25,139.42,141.6,139.44Zm-11.8-24.56c0,1,1.5,7.78,2.77,7.6C134.85,122.14,130.59,109.05,129.8,114.88ZM127.66,120q-.66,4.1,2.5,4.69C132.87,123.16,127.31,113,127.66,120Zm13.73-32.61C134.36,87.93,147,87.11,141.39,87.38Zm-1,64.83C135.3,152.53,144.84,152.95,140.4,152.21Zm8.94-13.26C148.33,134.08,149.34,142.77,149.35,138.95Z" transform="translate(33.5 32.89)"/>
    <path class="cls-1" d="M94.73,252.67c.06.35,14.13-42.87,21.67-31.48C119.12,225.31,90.06,243.45,94.73,252.67Z" transform="translate(33.5 32.89)"/>
    <path class="cls-1" d="M89.08,322.85c-.34,7.15-5.46-3.26-5.76-5.94-.5-4.5,3.74-15.83,6.53-19.84C92.14,303.79,88.91,315.84,89.08,322.85Z" transform="translate(33.5 32.89)"/>
    <path class="cls-1" d="M36.21,327.61c-.07-.86,5.46-2.34,6.25-3.48,1.41-2-.93-13.31-.82-15.23.22-3.7.58-26.71,1.27-26.59C41,282,47.42,324.81,45.71,327,42.67,331,44.7,327.6,36.21,327.61Z" transform="translate(33.5 32.89)"/>
    <path class="cls-3" d="M50.4,140.58q-6.27,0-5.91-7.22c-.82,2.31,13-1.87,12.81-1.95C62.48,133.64,52.07,140.59,50.4,140.58Z" transform="translate(33.5 32.89)"/>
    <path class="cls-1" d="M177.28,142.82c.2.28,8.85,16.2,9.14,15.78,1.49-2.18-10.69-1.48-8.81-1.06-1.25-.28-3.11-19.72-3.59-14.74,2.66.21,2.66,7.34,3.45,7.14C179,149.56,175.2,143.24,177.28,142.82Z" transform="translate(33.5 32.89)"/>
    <path class="cls-3" d="M25.63,192.21q6.8-2.6,9.9,2C36.27,204.75,13.58,194,25.63,192.21Z" transform="translate(33.5 32.89)"/>
    <path class="cls-3" d="M28.95,179a6.57,6.57,0,0,1,6.78,1.39c.64,3.4-8.49,4.71-10.65,3.75C18.19,181.12,29,179,28.95,179Z" transform="translate(33.5 32.89)"/>
    <path class="cls-1" d="M133.43,200.93c-.06,3-14.55-9.93-11.48-11.07C124.81,188.79,132.59,199.54,133.43,200.93Z" transform="translate(33.5 32.89)"/>
    <path class="cls-3" d="M174,142.8a37.68,37.68,0,0,0,2.61,10.77c-2.18,2.5-7.81-11.81-5.82-14.23Z" transform="translate(33.5 32.89)"/>
    <path class="cls-3" d="M.82,174.44c.45,2-3.82,5.38-5.38,3.38C-6.58,175.21.82,168.61.82,174.44Z" transform="translate(33.5 32.89)"/>
    <path class="cls-3" d="M2.56,164.1c.37,10.09-6.47-5-2.2-5.46Q3.23,160.26,2.56,164.1Z" transform="translate(33.5 32.89)"/>
    <path class="cls-3" d="M134.53,104.09c1.14.81,3.64,2.74,4,4,.68,2.28-3.57-.31-3-.56a14.09,14.09,0,0,0,1.2,5.17C133.41,110.75,133.47,106.06,134.53,104.09Z" transform="translate(33.5 32.89)"/>
    <path class="cls-1" d="M141.59,183c-.29,3.63-6.13-5.75-3.58-6.68Q141.91,177.82,141.59,183Z" transform="translate(33.5 32.89)"/>
    <path class="cls-1" d="M110.55,193.3c5.95-6.14,2,3.76,1.48,3.74A3.23,3.23,0,0,1,110.55,193.3Z" transform="translate(33.5 32.89)"/>
    <path class="cls-3" d="M121.69,117.87c2.47.39,4.46,4.38,2.2,5.95Q121.2,122,121.69,117.87Z" transform="translate(33.5 32.89)"/>
    <path class="cls-3" d="M173.69,130.67l1.25,4c-1.53-.1-3.08,3.56.69,4.94C172.21,143.85,173.46,129.23,173.69,130.67Z" transform="translate(33.5 32.89)"/>
    <path class="cls-3" d="M151.43,130.69c-.69-1.15-1.73-3.32-1.33-4.63Q153.41,128.42,151.43,130.69Z" transform="translate(33.5 32.89)"/>
    <path class="cls-3" d="M123.1,87.51C123,87.51,120.31,92.6,123.1,87.51Z" transform="translate(33.5 32.89)"/>
    <path class="cls-3" d="M176.85,145a6.09,6.09,0,0,1,.62,4.93C177,150.06,175.27,144.84,176.85,145Z" transform="translate(33.5 32.89)"/>
    <path class="cls-3" d="M133.67,70.35C132,75.27,131.54,71.58,133.67,70.35Z" transform="translate(33.5 32.89)"/>
    <path class="cls-3" d="M159.12,140C156.33,136.69,159.92,137.7,159.12,140Z" transform="translate(33.5 32.89)"/>
    <path class="cls-3" d="M131.43,109.62C131.95,104.63,132.84,116.67,131.43,109.62Z" transform="translate(33.5 32.89)"/>
    <path class="cls-3" d="M102.27,121.91C95.88,119.21,100.93,121.16,102.27,121.91Z" transform="translate(33.5 32.89)"/>
    <path class="cls-3" d="M155.26,133.18C153.45,132.17,153.65,128.83,155.26,133.18Z" transform="translate(33.5 32.89)"/>
    <path class="cls-3" d="M154.83,135.1Z" transform="translate(33.5 32.89)"/>
    <path class="cls-1" d="M144.48,111.36Z" transform="translate(33.5 32.89)"/>
    <path class="cls-3" d="M155.57,133.42C154.89,132.9,155.43,133.32,155.57,133.42Z" transform="translate(33.5 32.89)"/>
    <path class="cls-3" d="M102.29,121.92Z" transform="translate(33.5 32.89)"/>
    <path class="cls-1" d="M118.32,123.12h0Z" transform="translate(33.5 32.89)"/>
    <path class="cls-1" d="M157.91,148.8h0Z" transform="translate(33.5 32.89)"/>
    <path class="cls-2" d="M-29.42,325.2a7.32,7.32,0,0,1,.27-4.4c1.61-.41,4.21,9.1,1.19,9.1C-30.77,329.9-28.85,325.2-29.42,325.2Z" transform="translate(33.5 32.89)"/>
    <path class="cls-2" d="M36.21,327.61q4.55-1.55,7,2.23C40,330.09,35.5,331.7,36.21,327.61Z" transform="translate(33.5 32.89)"/>
    <path class="cls-2" d="M88.8,325.82A2.6,2.6,0,0,1,89,324C89.16,324.64,89.68,325.32,88.8,325.82Z" transform="translate(33.5 32.89)"/>
    <path class="cls-3" d="M197.65,128.71c.06-2.6,19.85,5.43,18.19,1C219.31,139,197.69,143.49,197.65,128.71Z" transform="translate(33.5 32.89)"/>
    <path class="cls-3" d="M250.16,123.19c.91-4.94,10.13,2.62,11.67,3.4C266.34,128.9,249.41,138.18,250.16,123.19Z" transform="translate(33.5 32.89)"/>
    <path class="cls-3" d="M230.73,167c-16.68-2.32,1.94-6.6,1.45-8.62C232.71,160.53,239.4,166,230.73,167Z" transform="translate(33.5 32.89)"/>
    <path class="cls-3" d="M244.95,161a6.5,6.5,0,0,1,6.27,1.1c.15,2.57-13.58,3.79-13.63,3.68C236.07,162.25,243.47,161,244.95,161Z" transform="translate(33.5 32.89)"/>
    <path class="cls-3" d="M175.81,91.73q-5.77-2.7.56-4.84Q181,89.6,175.81,91.73Z" transform="translate(33.5 32.89)"/>
    <path class="cls-3" d="M217.2,171.84l-5.66-5.76a5.3,5.3,0,0,1,4.13.08A7.45,7.45,0,0,1,217.2,171.84Z" transform="translate(33.5 32.89)"/>
    <path class="cls-3" d="M258,162.37c0,.26-2,5.4-2.76,1.37C254.52,160.2,257.46,158.66,258,162.37Z" transform="translate(33.5 32.89)"/>
    <path class="cls-3" d="M221.74,154.4q.12,3.76-2.36,2.37C218.22,153.5,221.37,151.36,221.74,154.4Z" transform="translate(33.5 32.89)"/>
    <path class="cls-1" d="M156.68,68.87C158.39,64.92,156.72,68.88,156.68,68.87Z" transform="translate(33.5 32.89)"/>
    <path class="cls-1" d="M224.42,77.48C225,73,224.82,82.07,224.42,77.48Z" transform="translate(33.5 32.89)"/>
    <path class="cls-2" d="M189.85,190.3c4.73.15-1.44,14.25.78,15.05,4.75,1.71-.92-18.47,1.36-11.18,2.87-.08,1.82,4,3.26,3.91.28,0,5.59-13.62,7.48-11.6,6.77,7.27-19,15.45,6.24,6.16a7.41,7.41,0,0,0-7.57,1.14c3.54-11,18.88.77,18.44,1.36.28-.38-2.22,9.56-1.47,9.09-.33.21-11.68-3.74-12.27-4,.71-1.07,3.76.62,4.08-.37.27-.83-5.15-2-5.76-1-1.34,2.2,13.57,11.08,6,15.37q-3.35-.72-2.34-5.08c-7.64,15.38-5.64-9.6-5.32-9.43-1.37-.69-25.24,18.33-25.65,14-.21-2.28,5.61-19.09,9.88-18,2.63.69-5.91,11.36-2.41,12S190,192.6,189.85,190.3ZM208,207.86C207.59,207.37,207.66,208.23,208,207.86Z" transform="translate(33.5 32.89)"/>
    <path class="cls-2" d="M209,254.46c-11.58,2.36-12.92-8.66-18.45,5.14-4.55,11.37,7.63,17,6.74,27.91C184,292,183.1,256.75,187.17,250.22,197.57,233.51,215.06,248.78,209,254.46Z" transform="translate(33.5 32.89)"/>
    <path class="cls-2" d="M192.78,158.19c8-11.65,24.41,28,25.36,27.37-3.46,2.46-14.87-4-19.48-4.47-.86-.09,8.58-4.85,8.35-6C207.87,179.37,193.39,159.28,192.78,158.19Z" transform="translate(33.5 32.89)"/>
    <path class="cls-2" d="M133.41,285.45c-.26,3-19.81,19.06-21.47,17.93s3.33-4.5,2.36-5.9c-1.11-1.6-5.8,4.09-6.79,3C105.56,298.21,133.43,282.25,133.41,285.45Z" transform="translate(33.5 32.89)"/>
    <path class="cls-2" d="M155.75,273c0,.29-16.65,22.34-19.69,19.2C134.46,290.57,155.75,271.86,155.75,273Z" transform="translate(33.5 32.89)"/>
    <path class="cls-2" d="M167.68,190.47c.41-2,8.77-14.68,9.85-13.9C181.61,179.49,167.52,191.31,167.68,190.47Z" transform="translate(33.5 32.89)"/>
    <path class="cls-2" d="M186.39,191.55c-1.32,1.85-13.46,13.55-14.39,12.07C170.64,201.47,184.29,191.89,186.39,191.55Z" transform="translate(33.5 32.89)"/>
    <path class="cls-2" d="M169.25,173.75c-.88-1.25-11.92,13.61-13.66,10.81S166.5,171.88,169.25,173.75Z" transform="translate(33.5 32.89)"/>
    <path class="cls-2" d="M183,188.29c11.26-6.36-7.55,8-8.33,7.57C167,191.37,182.73,188.34,183,188.29Z" transform="translate(33.5 32.89)"/>
    <path class="cls-2" d="M192.7,182.41c-.81-1.09-5.55-14.62-3.58-14.63C190.38,167.77,193.74,181.08,192.7,182.41Z" transform="translate(33.5 32.89)"/>
    <path class="cls-3" d="M182.58,163.76l-2.73,7.88Q174.08,162.4,182.58,163.76Z" transform="translate(33.5 32.89)"/>
    <path class="cls-2" d="M134.48,276.27c-.44.72-7.26,6.71-8.29,5.32C125.29,280.38,134.12,274.77,134.48,276.27Z" transform="translate(33.5 32.89)"/>
    <path class="cls-2" d="M182.58,163.76l-4.27.39c-.32-.93.41-4.22,1.8-4.42C180.85,159.63,182.65,163.17,182.58,163.76Z" transform="translate(33.5 32.89)"/>
    <path class="cls-2" d="M221.94,329.89c-12.35,0-15.6-14.23-5.73-17.46C223.15,310.16,248.34,329.9,221.94,329.89Z" transform="translate(33.5 32.89)"/>
    <path class="cls-2" d="M222.8,302.39c-10,.46,7.35-14.8,7.17-14.92C243.19,296.41,231.82,301.1,222.8,302.39Z" transform="translate(33.5 32.89)"/>
    <path class="cls-2" d="M257.21,306.6c0,.59-1-17.18,5.55-15.18,4.72,1.43.52,26.84-3.06,26.6Q255.25,313.68,257.21,306.6Z" transform="translate(33.5 32.89)"/>
    <path class="cls-2" d="M244.08,308.25q-2.49-8.74,4-13.06C258.22,295.37,244.08,322.82,244.08,308.25Z" transform="translate(33.5 32.89)"/>
    <path class="cls-2" d="M229.79,307.44a3.2,3.2,0,0,1,3.94,1.94C234.42,319.47,216.6,307.44,229.79,307.44Z" transform="translate(33.5 32.89)"/>
    <path class="cls-2" d="M276,318.92c-.61,6.58-4,2.29-6.09,3C267.66,322.78,276.12,308.36,276,318.92Z" transform="translate(33.5 32.89)"/>
    <path class="cls-2" d="M181.51,157.17a8.28,8.28,0,0,0,4.91,1.44c1.11-1.63-13.16-14.55-5.09-17.59.77-.29,7.28,8.11,4.79,9.47-.37.2-4.6-2.8-4.17-.82C181.28,146.55,191.36,174,181.51,157.17Z" transform="translate(33.5 32.89)"/>
    <path class="cls-2" d="M158.29,114c-.38-.74-.33-13,2.88-13.07S162.79,112.65,158.29,114Z" transform="translate(33.5 32.89)"/>
    <path class="cls-1" d="M179.25,116.17c-.47,3.56,5.31,12.23,2,15.7-1.05-3.45-6.42-12.67-6.57-15.46Z" transform="translate(33.5 32.89)"/>
    <path class="cls-1" d="M192,194.17c-2.29-7.29,3.38,12.9-1.36,11.18C189.37,204.9,191.28,193.52,192,194.17Z" transform="translate(33.5 32.89)"/>
    <path class="cls-2" d="M179.25,116.17q-4,2.25-5.18-.82C174.71,113.29,179.84,114.13,179.25,116.17Z" transform="translate(33.5 32.89)"/>
    <path class="cls-2" d="M183.73,161.5C180.13,166,183.33,153.08,183.73,161.5Z" transform="translate(33.5 32.89)"/>
    <path class="cls-2" d="M159.74,74.83C165.92,76.83,156.85,75.67,159.74,74.83Z" transform="translate(33.5 32.89)"/>
    <path class="cls-2" d="M192.39,184.88a11.48,11.48,0,0,1-.8-3.61A5.89,5.89,0,0,1,192.39,184.88Z" transform="translate(33.5 32.89)"/>
    <path class="cls-2" d="M116.2,129.83c2.82,1.23,2.54,15.25,1.87,17.4-9.38-16.24,1.56,6.18-1.15,14.52-3.05-3.86-10.59-24.87-3.41-19.46-.44-1.54-2.32-15.85-.93-16.23C115.44,125.26,114.61,136,116.2,129.83Z" transform="translate(33.5 32.89)"/>
    <path class="cls-2" d="M123,165q-.24-2.77,2.58-2.71C124.48,163.09,124.49,164.46,123,165Z" transform="translate(33.5 32.89)"/>
    <path class="cls-2" d="M115.86,125.07C122.9,126,108.72,129.92,115.86,125.07Z" transform="translate(33.5 32.89)"/>
    <path class="cls-2" d="M105.77,124.19C105.82,124.47,105.28,124.61,105.77,124.19Z" transform="translate(33.5 32.89)"/>
    <path class="cls-3" d="M37.51,6C37.17-1.27,38.56,11,37.51,6Z" transform="translate(33.5 32.89)"/>
    <path class="cls-3" d="M42.13,6.91C41.7,11.72,40.84,2,42.13,6.91Z" transform="translate(33.5 32.89)"/>
    <path class="cls-2" d="M152.45,145.91c1.21.6,3.4,7,1.74,6.3.68.29-20.62-13.22-15-14.35.51-.1,7,7.41,7.08,7.07-1,3-4.66-3.3-5.4-2.77C140.59,142.37,149.52,152.38,152.45,145.91Z" transform="translate(33.5 32.89)"/>
    <path class="cls-3" d="M152.45,145.91c-2.82,6.23-12.37-3.18-11.55-3.75s4.44,5.8,5.4,2.77c.23-.71-5-3.12-4.71-5.49C142.08,139.44,152.57,144.85,152.45,145.91Z" transform="translate(33.5 32.89)"/>
    <path class="cls-2" d="M129.8,114.88c.79-5.82,5.05,7.26,2.77,7.6C131.3,122.66,129.81,115.9,129.8,114.88Z" transform="translate(33.5 32.89)"/>
    <path class="cls-2" d="M127.66,120c-.35-6.9,4.81,3.39,2.5,4.69Q127,124.09,127.66,120Z" transform="translate(33.5 32.89)"/>
    <path class="cls-2" d="M141.39,87.38C147,87.11,134.36,87.93,141.39,87.38Z" transform="translate(33.5 32.89)"/>
    <path class="cls-2" d="M140.4,152.21C144.84,152.95,135.3,152.53,140.4,152.21Z" transform="translate(33.5 32.89)"/>
    <path class="cls-2" d="M149.35,138.95C149.34,142.77,148.33,134.08,149.35,138.95Z" transform="translate(33.5 32.89)"/>
    <path class="cls-1" d="M208,207.86C207.66,208.23,207.59,207.37,208,207.86Z" transform="translate(33.5 32.89)"/>
    <path class="cls-3" d="M116.34,131.84Z" transform="translate(33.5 32.89)"/>
  </g>
</svg>
