<?xml version="1.0" encoding="utf-8"?>
<?xml-stylesheet type="text/css" href="master.css"?>
<!-- Generator: Adobe Illustrator 21.1.0, SVG Export Plug-In . SVG Version: 6.00 Build 0)  -->
<svg version="1.1" id="soundbars" xmlns="http://www.w3.org/2000/svg" xmlns:xlink="http://www.w3.org/1999/xlink" x="0px" y="0px"
	 viewBox="0 0 300 300" style="enable-background:new 0 0 300 300;" xml:space="preserve">
<path id="XMLID_267_" d="M49.9,260v21.3c0,2.5-2,4.5-4.5,4.5H24.1c-2.5,0-4.5-2-4.5-4.5V260c0-2.5,2-4.5,4.5-4.5h21.3
	C47.9,255.5,49.9,257.5,49.9,260z M45.4,220.5H24.1c-2.5,0-4.5,2-4.5,4.5v21.3c0,2.5,2,4.5,4.5,4.5h21.3c2.5,0,4.5-2,4.5-4.5V225
	C49.9,222.5,47.9,220.5,45.4,220.5z M45.4,185.5H24.1c-2.5,0-4.5,2-4.5,4.5v21.3c0,2.5,2,4.5,4.5,4.5h21.3c2.5,0,4.5-2,4.5-4.5V190
	C49.9,187.5,47.9,185.5,45.4,185.5z M45.4,150.5H24.1c-2.5,0-4.5,2-4.5,4.5v21.3c0,2.5,2,4.5,4.5,4.5h21.3c2.5,0,4.5-2,4.5-4.5
	v-21.3C49.9,152.5,47.9,150.5,45.4,150.5z M45.4,115.5H24.1c-2.5,0-4.5,2-4.5,4.5v21.3c0,2.5,2,4.5,4.5,4.5h21.3
	c2.5,0,4.5-2,4.5-4.5v-21.3C49.9,117.5,47.9,115.5,45.4,115.5z M92.7,255.5H71.4c-2.5,0-4.5,2-4.5,4.5v21.3c0,2.5,2,4.5,4.5,4.5
	h21.3c2.5,0,4.5-2,4.5-4.5V260C97.2,257.5,95.2,255.5,92.7,255.5z M92.7,220.5H71.4c-2.5,0-4.5,2-4.5,4.5v21.3c0,2.5,2,4.5,4.5,4.5
	h21.3c2.5,0,4.5-2,4.5-4.5V225C97.2,222.5,95.2,220.5,92.7,220.5z M92.7,185.5H71.4c-2.5,0-4.5,2-4.5,4.5v21.3c0,2.5,2,4.5,4.5,4.5
	h21.3c2.5,0,4.5-2,4.5-4.5v-21.3C97.2,187.5,95.2,185.5,92.7,185.5z M92.7,150.5H71.4c-2.5,0-4.5,2-4.5,4.5v21.3
	c0,2.5,2,4.5,4.5,4.5h21.3c2.5,0,4.5-2,4.5-4.5v-21.3C97.2,152.5,95.2,150.5,92.7,150.5z M140,255.5h-21.3c-2.5,0-4.5,2-4.5,4.5
	v21.3c0,2.5,2,4.5,4.5,4.5H140c2.5,0,4.5-2,4.5-4.5V260C144.5,257.5,142.5,255.5,140,255.5z M140,220.5h-21.3c-2.5,0-4.5,2-4.5,4.5
	v21.3c0,2.5,2,4.5,4.5,4.5H140c2.5,0,4.5-2,4.5-4.5V225C144.5,222.5,142.5,220.5,140,220.5z M187.3,255.5H166c-2.5,0-4.5,2-4.5,4.5
	v21.3c0,2.5,2,4.5,4.5,4.5h21.3c2.5,0,4.5-2,4.5-4.5V260C191.8,257.5,189.8,255.5,187.3,255.5z M187.3,220.5H166
	c-2.5,0-4.5,2-4.5,4.5v21.3c0,2.5,2,4.5,4.5,4.5h21.3c2.5,0,4.5-2,4.5-4.5V225C191.8,222.5,189.8,220.5,187.3,220.5z M187.3,185.5
	H166c-2.5,0-4.5,2-4.5,4.5v21.3c0,2.5,2,4.5,4.5,4.5h21.3c2.5,0,4.5-2,4.5-4.5v-21.3C191.8,187.5,189.8,185.5,187.3,185.5z
	 M234.6,255.5h-21.3c-2.5,0-4.5,2-4.5,4.5v21.3c0,2.5,2,4.5,4.5,4.5h21.3c2.5,0,4.5-2,4.5-4.5V260
	C239.1,257.5,237.1,255.5,234.6,255.5z M234.6,220.5h-21.3c-2.5,0-4.5,2-4.5,4.5v21.3c0,2.5,2,4.5,4.5,4.5h21.3c2.5,0,4.5-2,4.5-4.5
	V225C239.1,222.5,237.1,220.5,234.6,220.5z M234.6,185.5h-21.3c-2.5,0-4.5,2-4.5,4.5v21.3c0,2.5,2,4.5,4.5,4.5h21.3
	c2.5,0,4.5-2,4.5-4.5v-21.3C239.1,187.5,237.1,185.5,234.6,185.5z M234.6,150.5h-21.3c-2.5,0-4.5,2-4.5,4.5v21.3
	c0,2.5,2,4.5,4.5,4.5h21.3c2.5,0,4.5-2,4.5-4.5v-21.3C239.1,152.5,237.1,150.5,234.6,150.5z M234.6,115.5h-21.3
	c-2.5,0-4.5,2-4.5,4.5v21.3c0,2.5,2,4.5,4.5,4.5h21.3c2.5,0,4.5-2,4.5-4.5v-21.3C239.1,117.5,237.1,115.5,234.6,115.5z M281.9,255.5
	h-21.3c-2.5,0-4.5,2-4.5,4.5v21.3c0,2.5,2,4.5,4.5,4.5h21.3c2.5,0,4.5-2,4.5-4.5V260C286.4,257.5,284.4,255.5,281.9,255.5z
	 M281.9,220.5h-21.3c-2.5,0-4.5,2-4.5,4.5v21.3c0,2.5,2,4.5,4.5,4.5h21.3c2.5,0,4.5-2,4.5-4.5V225
	C286.4,222.5,284.4,220.5,281.9,220.5z"/>
</svg>
